<svg xmlns="http://www.w3.org/2000/svg" viewBox="0 0 64 64">
  <defs>
    <linearGradient id="blue" x1="5" y1="3" x2="60" y2="62" gradientUnits="userSpaceOnUse">
      <stop stop-color="#5a9ee0"/>
      <stop offset="1" stop-color="#2d69a8"/>
    </linearGradient>
  </defs>
  <rect width="64" height="64" fill="url(#blue)"/>
  <g fill="none" stroke="#fff" stroke-width="4" stroke-linecap="round" stroke-linejoin="round">
    <path d="M32 11c9.8 0 18.2 6.5 20.9 15.4.9 3.2 1.1 7-.4 10.2-1.8 3.9-5.9 5.7-10 5.7h-21c-4.1 0-8.2-1.8-10-5.7-1.5-3.2-1.3-7-.4-10.2C13.8 17.5 22.2 11 32 11Z"/>
    <path d="M21.4 42.1v5.8C21.4 54.2 26.2 59 32 59s10.6-4.8 10.6-11.1v-5.8M23.3 28.3c2.4-2.1 5.4-3.1 8.7-3.1s6.3 1 8.7 3.1"/>
  </g>
</svg>
